<?xml version="1.0" encoding="UTF-8" standalone="no"?>
<!-- Created with Inkscape (http://www.inkscape.org/) -->

<svg
   width="137.68689mm"
   height="137.68689mm"
   viewBox="0 0 137.68689 137.68689"
   version="1.1"
   id="svg5"
   sodipodi:docname="logo_rounded_pro.svg"
   inkscape:version="1.2.2 (b0a84865, 2022-12-01)"
   xml:space="preserve"
   inkscape:export-filename="logo_rounded_pro.png"
   inkscape:export-xdpi="101.73785"
   inkscape:export-ydpi="101.73785"
   xmlns:inkscape="http://www.inkscape.org/namespaces/inkscape"
   xmlns:sodipodi="http://sodipodi.sourceforge.net/DTD/sodipodi-0.dtd"
   xmlns="http://www.w3.org/2000/svg"
   xmlns:svg="http://www.w3.org/2000/svg"><sodipodi:namedview
     id="namedview7"
     pagecolor="#ffffff"
     bordercolor="#666666"
     borderopacity="1.0"
     inkscape:pageshadow="2"
     inkscape:pageopacity="0.0"
     inkscape:pagecheckerboard="0"
     inkscape:document-units="mm"
     showgrid="false"
     showguides="true"
     fit-margin-top="0"
     fit-margin-left="0"
     fit-margin-right="0"
     fit-margin-bottom="0"
     inkscape:zoom="0.72298418"
     inkscape:cx="-141.7735"
     inkscape:cy="166.67031"
     inkscape:window-width="1800"
     inkscape:window-height="1025"
     inkscape:window-x="0"
     inkscape:window-y="44"
     inkscape:window-maximized="1"
     inkscape:current-layer="layer1"
     inkscape:showpageshadow="2"
     inkscape:deskcolor="#d1d1d1"><inkscape:grid
       type="xygrid"
       id="grid68471" /></sodipodi:namedview><defs
     id="defs2" /><g
     inkscape:label="Lag 1"
     inkscape:groupmode="layer"
     id="layer1"
     transform="translate(-11.567436,-48.190765)"><circle
       style="fill:#e4f8f5;fill-opacity:1;stroke-width:0.264583"
       id="path2092"
       cx="80.410881"
       cy="117.03421"
       r="68.843445" /><path
       style="fill:#22655d;stroke:none;stroke-width:0.172123"
       d="m 105.71597,94.752409 c -3.37278,-1.921764 -6.324529,-4.195508 -9.983193,-5.644962 -11.270853,-4.46509 -23.989443,-3.833235 -34.76906,1.730492 -4.11497,2.124012 -7.848254,5.004374 -11.000535,8.389697 -16.768652,18.008844 -13.47175,48.228974 6.869559,62.077614 16.581919,11.28907 39.753775,8.98005 53.515089,-5.79302 3.62269,-3.88895 6.45982,-8.48779 8.41445,-13.42566 2.75278,-6.95439 2.7891,-13.99393 2.7891,-21.34343 V 100.94887 78.744876 c 0,-3.639359 0.54012,-7.507162 -1.97341,-10.49708 -3.53077,-4.200275 -10.99183,-3.11714 -13.19467,1.89088 -1.12655,2.561031 -0.66733,5.6998 -0.66733,8.434076 v 16.179657 m -27.539812,7.106111 c 2.945214,-0.34849 6.116086,0.11137 8.950451,0.91125 3.028178,0.85442 5.915903,2.29974 8.434081,4.18538 14.10849,10.56513 12.99003,32.42181 -1.721244,41.89724 -3.076718,1.98168 -6.693905,3.23819 -10.327445,3.68451 -3.604101,0.4425 -7.540577,0.17423 -11.015936,-0.93978 -16.288446,-5.22108 -22.692529,-25.53348 -12.83564,-39.28806 1.953782,-2.72626 4.301731,-4.8286 7.155548,-6.57324 3.551263,-2.17119 7.240224,-3.38948 11.360185,-3.8773"
       id="path874" /><path
       sodipodi:type="star"
       style="opacity:1;fill:#f1c400;fill-opacity:1;stroke-width:0.365001;stroke-opacity:0.259804"
       id="path68525"
       inkscape:flatsided="false"
       sodipodi:sides="5"
       sodipodi:cx="99.943748"
       sodipodi:cy="51.839981"
       sodipodi:r1="57.479038"
       sodipodi:r2="29.243984"
       sodipodi:arg1="0.92661022"
       sodipodi:arg2="1.5467522"
       inkscape:rounded="0"
       inkscape:randomized="0"
       d="M 134.46266,97.799577 100.64683,81.075512 66.900506,98.871715 72.356369,61.542924 45.002988,34.947595 82.190732,28.601198 99.031734,-5.6318213 116.55916,27.77468 l 37.76169,5.43816 -26.3552,26.99275 z"
       transform="matrix(0.26455474,0.00388966,-0.00388966,0.26455474,89.692815,90.226454)"
       inkscape:transform-center-x="-0.55037902"
       inkscape:transform-center-y="-1.0271392" /></g></svg>
