<?xml version="1.0" encoding="UTF-8" standalone="no"?>
<!-- Created with Inkscape (http://www.inkscape.org/) -->

<svg
   width="137.68689mm"
   height="137.68689mm"
   viewBox="0 0 137.68689 137.68689"
   version="1.1"
   id="svg5"
   sodipodi:docname="logo_rounded.svg"
   inkscape:version="1.2.2 (b0a84865, 2022-12-01)"
   xmlns:inkscape="http://www.inkscape.org/namespaces/inkscape"
   xmlns:sodipodi="http://sodipodi.sourceforge.net/DTD/sodipodi-0.dtd"
   xmlns="http://www.w3.org/2000/svg"
   xmlns:svg="http://www.w3.org/2000/svg">
  <sodipodi:namedview
     id="namedview7"
     pagecolor="#ffffff"
     bordercolor="#666666"
     borderopacity="1.0"
     inkscape:pageshadow="2"
     inkscape:pageopacity="0.0"
     inkscape:pagecheckerboard="0"
     inkscape:document-units="mm"
     showgrid="false"
     showguides="true"
     fit-margin-top="0"
     fit-margin-left="0"
     fit-margin-right="0"
     fit-margin-bottom="0"
     inkscape:zoom="1.4681257"
     inkscape:cx="202.63932"
     inkscape:cy="5.1085544"
     inkscape:window-width="1800"
     inkscape:window-height="1025"
     inkscape:window-x="0"
     inkscape:window-y="44"
     inkscape:window-maximized="1"
     inkscape:current-layer="layer1"
     inkscape:showpageshadow="2"
     inkscape:deskcolor="#d1d1d1" />
  <defs
     id="defs2" />
  <g
     inkscape:label="Lag 1"
     inkscape:groupmode="layer"
     id="layer1"
     transform="translate(-11.567436,-48.190765)">
    <circle
       style="fill:#e4f8f5;fill-opacity:1;stroke-width:0.264583"
       id="path2092"
       cx="80.410881"
       cy="117.03421"
       r="68.843445" />
    <path
       style="fill:#22655d;stroke:none;stroke-width:0.04297"
       d="m 51.356306,109.31147 c -2.421834,0.31892 -4.725973,1.1876 -6.486796,2.94839 -3.215789,3.21583 -3.943657,8.39921 -1.726405,12.37369 0.77127,1.38256 1.888574,2.54391 3.18571,3.44254 0.992007,0.68722 2.138705,1.19972 3.308691,1.49355 1.172176,0.29444 2.407868,0.3952 3.60948,0.25099 5.213167,-0.62547 9.158203,-5.05891 9.19559,-10.30051 0.03992,-5.65508 -5.290859,-10.9718 -11.08627,-10.20865 m 0.12891,3.94729 c 0.738695,-0.0874 1.518601,0.003 2.23444,0.18671 0.77939,0.20041 1.5,0.53318 2.148501,1.01083 3.568617,2.62856 3.41285,8.17182 -0.38673,10.51824 -0.80156,0.49502 -1.728511,0.82095 -2.664141,0.93585 -0.768994,0.0944 -1.57008,0.0338 -2.32038,-0.16625 -0.738526,-0.19693 -1.449933,-0.55381 -2.06256,-1.00873 -3.541583,-2.62976 -3.498833,-8.13474 0.30079,-10.54127 0.838515,-0.53107 1.769594,-0.81927 2.75008,-0.93538 z"
       id="path68298" />
    <path
       style="fill:#22655d;stroke:none;stroke-width:0.04297"
       d="m 130.76497,123.25898 v 3.60949 c 0,0.61932 -0.0928,1.31561 0.18304,1.89068 0.65874,1.37237 2.74665,1.49474 3.49906,0.12891 0.27715,-0.50362 0.22817,-1.03464 0.22817,-1.58989 v -2.49227 c 0,-0.33036 -0.15684,-1.22977 0.0688,-1.48191 0.18047,-0.20106 0.7481,-0.2427 1.0055,-0.31678 0.69826,-0.20105 1.38835,-0.47971 2.01959,-0.84084 2.28857,-1.30916 4.02843,-3.47781 4.81134,-5.99744 0.38974,-1.25383 0.431,-2.52389 0.431,-3.82433 0,-0.51952 0.0868,-1.1287 -0.0498,-1.63286 -0.23247,-0.86014 -1.00593,-1.42103 -1.88381,-1.44144 -0.96124,-0.0223 -1.75619,0.6342 -1.94783,1.57035 -0.24364,1.18704 0.0898,2.4477 -0.17575,3.65245 -0.77088,3.49517 -4.42892,5.75312 -7.88843,4.8061 -2.55586,-0.69955 -4.36403,-2.93957 -4.67127,-5.53659 -0.12676,-1.06859 0.25739,-2.34183 -0.19766,-3.35166 -0.55088,-1.22138 -2.20179,-1.51461 -3.16604,-0.59772 -0.94404,0.89799 -0.64412,2.77118 -0.5629,3.94938 0.3068,4.45783 3.65632,8.89706 8.29708,9.49637"
       id="path68296" />
    <path
       style="fill:#22655d;stroke:none;stroke-width:0.04297"
       d="m 110.22527,109.27073 c -0.72104,0.12977 -1.34281,0.68486 -1.52629,1.39804 -0.15254,0.59328 -0.0636,1.28162 -0.0636,1.89068 v 3.56651 c 0,1.81277 -0.16586,3.71432 0.19122,5.50016 0.7004,3.50179 3.33146,6.54137 6.72695,7.67732 1.14687,0.3836 2.71828,0.82206 3.91027,0.44276 1.34239,-0.42712 1.77337,-2.12117 0.88819,-3.17848 -0.75284,-0.89975 -1.93064,-0.6205 -2.95075,-0.87556 -1.31488,-0.32876 -2.5103,-1.13326 -3.36842,-2.17536 -1.41629,-1.72035 -1.44422,-3.64489 -1.44422,-5.75798 0,-1.86452 0.043,-3.7219 0.043,-5.5861 0,-0.55621 0.0593,-1.1428 -0.13278,-1.67583 -0.327,-0.90836 -1.35226,-1.39202 -2.27354,-1.22616"
       id="path68294" />
    <path
       style="fill:#22655d;stroke:none;stroke-width:0.04297"
       d="m 87.365198,109.26989 c -0.810416,0.13019 -1.468711,0.81385 -1.613092,1.61395 -0.122042,0.67846 -0.01979,1.45926 -0.01979,2.1485 v 4.33997 c 0,1.94079 -0.07308,3.81488 0.588258,5.67205 1.546489,4.34139 6.04846,7.21767 10.626914,6.78196 4.296142,-0.40882 8.019932,-3.56583 9.070972,-7.77027 0.47611,-1.90328 0.29649,-3.94105 0.29649,-5.8869 v -3.48057 c 0,-0.58469 0.0756,-1.22945 -0.0343,-1.80474 -0.13664,-0.71339 -0.60029,-1.30217 -1.29769,-1.54352 -1.03128,-0.35688 -2.25463,0.23229 -2.57648,1.2857 -0.31884,1.04288 -0.0877,2.43734 -0.0877,3.52354 v 4.16809 c 0,0.9126 0.0705,1.81033 -0.13922,2.70712 -0.35192,1.50884 -1.32992,2.88912 -2.61086,3.75256 -0.532396,0.35884 -1.103897,0.65363 -1.7188,0.84416 -0.761,0.23582 -1.569268,0.30947 -2.36335,0.25502 -0.681506,-0.0467 -1.34969,-0.25133 -1.976621,-0.51228 -0.527245,-0.21942 -1.0214,-0.54324 -1.46098,-0.90548 -3.032828,-2.50029 -2.32038,-6.60169 -2.32038,-10.09434 0,-1.14085 0.220864,-2.54714 -0.07562,-3.65245 -0.272859,-1.0183 -1.267183,-1.60605 -2.287721,-1.44207"
       id="path68292" />
    <path
       style="fill:#22655d;stroke:none;stroke-width:0.04297"
       d="m 69.059949,121.71159 c 1.072533,0 2.19877,-0.0994 3.26572,0.008 1.715789,0.17154 3.276463,1.06055 4.348134,2.39898 0.529816,0.6616 0.949637,1.45359 1.156324,2.27742 0.323561,1.28759 0.03307,2.90597 1.628563,3.39294 0.238484,0.0727 0.482119,0.0972 0.730491,0.0859 2.164825,-0.0981 1.942244,-2.65175 1.604929,-4.12343 -0.556461,-2.42808 -2.030764,-4.65796 -4.05422,-6.10778 -0.609743,-0.43687 -1.395239,-1.02027 -2.1485,-1.15416 0.621771,-1.16853 1.338516,-2.3023 2.01959,-3.4376 0.484267,-0.80746 0.996473,-1.61315 1.429184,-2.4493 0.209259,-0.40434 0.439149,-0.77694 0.459779,-1.24613 0.07131,-1.61812 -1.768647,-2.70844 -3.135093,-1.76585 -0.653144,0.45046 -1.026552,1.35321 -1.411565,2.02367 -0.785497,1.36808 -1.602781,2.71781 -2.394723,4.08216 -0.274146,0.473 -0.544857,0.94877 -0.825879,1.41801 -0.104845,0.17479 -0.213133,0.45655 -0.399621,0.55723 -0.168877,0.091 -0.453333,0.002 -0.640253,0.002 h -1.63286 v -4.85561 c 0,-0.76964 0.137072,-1.69169 -0.205825,-2.40632 -0.631659,-1.31738 -2.430385,-1.54925 -3.356389,-0.42906 -0.454196,0.54915 -0.446034,1.21484 -0.47525,1.89004 -0.04771,1.10239 0.04128,2.2429 0.04128,3.35166 v 8.25024 3.35167 c 0,0.60626 -0.08508,1.27402 0.148246,1.84771 0.693966,1.70397 3.014777,1.46282 3.705732,-0.0859 0.28833,-0.64657 0.142232,-1.54224 0.142232,-2.23444 v -4.64077"
       id="path68290" />
    <path
       style="fill:#22655d;stroke:none;stroke-width:0.04297"
       d="m 34.383147,111.44175 c -0.841998,-0.47976 -1.578891,-1.04739 -2.492261,-1.40924 -2.813719,-1.11469 -5.988859,-0.95695 -8.679943,0.43201 -1.027284,0.53025 -1.959282,1.24932 -2.746235,2.09445 -4.18622,4.49583 -3.363163,12.04015 1.714955,15.4974 4.139603,2.81827 9.924355,2.24183 13.359807,-1.4462 0.904389,-0.97086 1.612664,-2.11894 2.100631,-3.35166 0.687219,-1.73613 0.696286,-3.49352 0.696286,-5.32829 v -4.94155 -5.54313 c 0,-0.90855 0.13484,-1.87413 -0.492651,-2.62055 -0.881443,-1.04858 -2.744064,-0.77818 -3.293995,0.47205 -0.281239,0.63935 -0.166594,1.42293 -0.166594,2.10553 v 4.03918 m -6.875194,1.77401 c 0.73526,-0.087 1.526854,0.0278 2.234441,0.22749 0.755971,0.2133 1.476879,0.57412 2.105531,1.04486 3.522122,2.63754 3.242903,8.09396 -0.429701,10.45946 -0.768089,0.49472 -1.671104,0.8084 -2.578201,0.91982 -0.899748,0.11047 -1.882472,0.0435 -2.75008,-0.23461 -4.066339,-1.30342 -5.66509,-6.37432 -3.204361,-9.80809 0.487753,-0.6806 1.073908,-1.20544 1.786351,-1.64098 0.886557,-0.54203 1.80749,-0.84617 2.83602,-0.96795"
       id="path874" />
  </g>
</svg>
