<?xml version="1.0" encoding="UTF-8" standalone="no"?>
<!-- Created with Inkscape (http://www.inkscape.org/) -->

<svg
   width="148.07948mm"
   height="30.400085mm"
   viewBox="0 0 148.07948 30.400086"
   version="1.1"
   id="svg5"
   sodipodi:docname="logo.svg"
   inkscape:version="1.1 (c68e22c387, 2021-05-23)"
   xmlns:inkscape="http://www.inkscape.org/namespaces/inkscape"
   xmlns:sodipodi="http://sodipodi.sourceforge.net/DTD/sodipodi-0.dtd"
   xmlns="http://www.w3.org/2000/svg"
   xmlns:svg="http://www.w3.org/2000/svg">
  <sodipodi:namedview
     id="namedview7"
     pagecolor="#ffffff"
     bordercolor="#666666"
     borderopacity="1.0"
     inkscape:pageshadow="2"
     inkscape:pageopacity="0.0"
     inkscape:pagecheckerboard="0"
     inkscape:document-units="mm"
     showgrid="false"
     showguides="false"
     fit-margin-top="0"
     fit-margin-left="0"
     fit-margin-right="0"
     fit-margin-bottom="0"
     inkscape:zoom="1.4681257"
     inkscape:cx="284.37619"
     inkscape:cy="95.700252"
     inkscape:window-width="1920"
     inkscape:window-height="1009"
     inkscape:window-x="-8"
     inkscape:window-y="-8"
     inkscape:window-maximized="1"
     inkscape:current-layer="layer1" />
  <defs
     id="defs2" />
  <g
     inkscape:label="Lag 1"
     inkscape:groupmode="layer"
     id="layer1"
     transform="translate(-6.3711396,-101.83417)">
    <path
       style="fill:#22655d;stroke:none;stroke-width:0.0508"
       d="m 25.996028,110.42312 c -0.995426,-0.56719 -1.866596,-1.23825 -2.9464,-1.66604 -3.326435,-1.3178 -7.080149,-1.13132 -10.261601,0.51074 -1.214476,0.62687 -2.316303,1.47696 -3.2466538,2.4761 -4.9490328,5.31505 -3.9759994,14.2341 2.0274538,18.32132 4.89392,3.33182 11.732769,2.65034 15.794229,-1.70972 1.069187,-1.14778 1.906524,-2.50505 2.483409,-3.9624 0.812444,-2.05248 0.823163,-4.1301 0.823163,-6.2992 v -5.842 -6.5532 c 0,-1.07411 0.15941,-2.21564 -0.582422,-3.09807 -1.04206,-1.23966 -3.244088,-0.91998 -3.894227,0.55806 -0.332486,0.75586 -0.196951,1.68222 -0.196951,2.48921 v 4.7752 m 40.995602,12.1412 c 1.267969,0 2.599437,-0.11745 3.860801,0.009 2.028444,0.2028 3.8735,1.2538 5.140452,2.83612 0.626364,0.78216 1.12268,1.71846 1.367028,2.6924 0.382524,1.52222 0.03912,3.4355 1.92532,4.01121 0.28194,0.086 0.569976,0.11491 0.8636,0.1016 2.559305,-0.11602 2.296161,-3.13496 1.897381,-4.87481 -0.657861,-2.87051 -2.400809,-5.50672 -4.792981,-7.22072 -0.720852,-0.51648 -1.649476,-1.20619 -2.54,-1.36448 0.735076,-1.38146 1.58242,-2.72182 2.3876,-4.064 0.572516,-0.95459 1.178052,-1.90709 1.689608,-2.8956 0.247396,-0.47803 0.519176,-0.91852 0.54356,-1.4732 0.08433,-1.91298 -2.090928,-3.20198 -3.706368,-2.08763 -0.77216,0.53254 -1.213612,1.59979 -1.66878,2.39243 -0.928624,1.61737 -1.89484,3.21304 -2.831084,4.826 -0.324104,0.5592 -0.644144,1.12166 -0.976376,1.6764 -0.123952,0.20665 -0.251968,0.53975 -0.47244,0.65877 -0.199644,0.10759 -0.53594,0.002 -0.75692,0.002 H 66.99163 v -5.7404 c 0,-0.90988 0.162053,-1.99995 -0.243332,-2.8448 -0.74676,-1.55743 -2.873248,-1.83155 -3.967988,-0.50724 -0.536956,0.64922 -0.527304,1.43621 -0.561848,2.23444 -0.05639,1.30327 0.04877,2.6516 0.04877,3.9624 v 9.7536 3.9624 c 0,0.71673 -0.100584,1.50617 0.17526,2.1844 0.82042,2.01447 3.564128,1.72938 4.380992,-0.1016 0.340869,-0.76439 0.168148,-1.82327 0.168148,-2.6416 v -5.4864 m 21.6408,-14.71034 c -0.958088,0.15392 -1.736344,0.96215 -1.907032,1.90805 -0.144272,0.80208 -0.02337,1.72516 -0.02337,2.54 v 5.1308 c 0,2.29443 -0.08636,4.51002 0.695452,6.7056 1.828292,5.13247 7.150608,8.53287 12.563349,8.01776 5.078989,-0.48331 9.481319,-4.21559 10.723879,-9.18616 0.56287,-2.25009 0.35052,-4.65918 0.35052,-6.9596 v -4.1148 c 0,-0.69124 0.0894,-1.45349 -0.0406,-2.1336 -0.16154,-0.84339 -0.70967,-1.53945 -1.53416,-1.82479 -1.2192,-0.4219 -2.66547,0.27462 -3.04596,1.51999 -0.37694,1.23291 -0.10364,2.88147 -0.10364,4.1656 v 4.9276 c 0,1.07889 0.0833,2.1402 -0.16459,3.2004 -0.41605,1.78379 -1.57226,3.41558 -3.08661,4.43636 -0.62941,0.42423 -1.30505,0.77272 -2.032,0.99797 -0.89967,0.27879 -1.855215,0.36586 -2.793999,0.30149 -0.805688,-0.0552 -1.595629,-0.29713 -2.336801,-0.60563 -0.623316,-0.25939 -1.207516,-0.64222 -1.7272,-1.07046 -3.585464,-2.9559 -2.7432,-7.80466 -2.7432,-11.93373 0,-1.34874 0.261112,-3.01128 -0.08941,-4.318 -0.32258,-1.20386 -1.498092,-1.89871 -2.704592,-1.70485 m 27.025602,0.001 c -0.85242,0.15341 -1.5875,0.80965 -1.80441,1.65278 -0.18034,0.70139 -0.0752,1.51516 -0.0752,2.2352 v 4.2164 c 0,2.1431 -0.19608,4.39115 0.22606,6.5024 0.82804,4.13989 3.93853,7.73333 7.95274,9.07628 1.35586,0.45349 3.21361,0.97185 4.6228,0.52344 1.587,-0.50495 2.09652,-2.50769 1.05004,-3.75767 -0.89002,-1.0637 -2.28244,-0.73356 -3.48844,-1.0351 -1.55448,-0.38867 -2.96773,-1.33975 -3.98221,-2.57175 -1.67437,-2.03383 -1.70739,-4.30906 -1.70739,-6.8072 0,-2.20427 0.0508,-4.4001 0.0508,-6.604 0,-0.65756 0.0701,-1.35103 -0.15697,-1.9812 -0.38659,-1.07387 -1.59867,-1.64567 -2.68783,-1.44958 m 24.28241,16.53718 v 4.2672 c 0,0.73218 -0.10973,1.55534 0.2164,2.2352 0.77877,1.62245 3.24714,1.76712 4.13665,0.1524 0.32766,-0.59538 0.26975,-1.22317 0.26975,-1.8796 v -2.9464 c 0,-0.39055 -0.18542,-1.45385 0.0813,-1.75194 0.21336,-0.2377 0.88442,-0.28692 1.18872,-0.3745 0.8255,-0.23769 1.64134,-0.56713 2.3876,-0.99406 2.7056,-1.54772 4.7625,-4.11154 5.68807,-7.0903 0.46076,-1.4823 0.50953,-2.98379 0.50953,-4.5212 0,-0.61418 0.10261,-1.33437 -0.0589,-1.9304 -0.27483,-1.01687 -1.18923,-1.67996 -2.22707,-1.70409 -1.1364,-0.0264 -2.0762,0.74976 -2.30277,1.85649 -0.28803,1.40335 0.10617,2.89372 -0.20777,4.318 -0.91135,4.13207 -5.23596,6.80146 -9.32586,5.68187 -3.02159,-0.82702 -5.15925,-3.47522 -5.52247,-6.54547 -0.14986,-1.2633 0.30429,-2.76855 -0.23368,-3.9624 -0.65126,-1.44394 -2.603,-1.7906 -3.74295,-0.70663 -1.11607,1.06162 -0.76149,3.27614 -0.66548,4.66903 0.36271,5.27014 4.32258,10.51829 9.80898,11.2268 m -93.878491,-16.4882 c -2.863139,0.37704 -5.587137,1.40401 -7.668819,3.48565 -3.801771,3.80182 -4.662272,9.92972 -2.040992,14.62842 0.911809,1.63449 2.232711,3.00746 3.766211,4.06984 1.172769,0.81244 2.528417,1.41833 3.9116,1.7657 1.385773,0.34809 2.846629,0.46721 4.2672,0.29673 6.163107,-0.73945 10.827005,-5.98074 10.871201,-12.17747 0.04724,-6.68554 -6.254954,-12.97107 -13.106401,-12.06887 m -28.194002,4.61574 c 0.869239,-0.10287 1.805077,0.0329 2.6416,0.26894 0.893725,0.25217 1.745996,0.67874 2.489201,1.23525 4.163923,3.11816 3.833825,9.56884 -0.508001,12.36538 -0.90805,0.58486 -1.975612,0.9557 -3.048,1.08743 -1.063701,0.1306 -2.225497,0.0514 -3.2512,-0.27737 -4.807306,-1.54092 -6.6973809,-7.53583 -3.788258,-11.5953 0.576631,-0.80463 1.269594,-1.4251 2.111858,-1.94001 1.048106,-0.64079 2.136851,-1.00035 3.3528,-1.14432 m 28.346402,0.0508 c 0.873303,-0.10332 1.795323,0.003 2.6416,0.22073 0.921411,0.23693 1.773327,0.63033 2.54,1.19502 4.21889,3.10754 4.03474,9.66089 -0.4572,12.43487 -0.947623,0.58522 -2.043481,0.97054 -3.1496,1.10638 -0.909117,0.11166 -1.856181,0.04 -2.7432,-0.19655 -0.8731,-0.23281 -1.714144,-0.65471 -2.4384,-1.19253 -4.186936,-3.10896 -4.13639,-9.61705 0.3556,-12.4621 0.991311,-0.62784 2.092046,-0.96856 3.2512,-1.10582 z"
       id="path874" />
  </g>
</svg>
