<?xml version="1.0" encoding="UTF-8" standalone="no"?>
<!-- Created with Inkscape (http://www.inkscape.org/) -->

<svg
   width="168.2231mm"
   height="189.83488mm"
   viewBox="0 0 168.2231 189.83488"
   version="1.1"
   id="svg5"
   xml:space="preserve"
   inkscape:version="1.2.2 (b0a84865, 2022-12-01)"
   sodipodi:docname="oops_robot.svg"
   xmlns:inkscape="http://www.inkscape.org/namespaces/inkscape"
   xmlns:sodipodi="http://sodipodi.sourceforge.net/DTD/sodipodi-0.dtd"
   xmlns="http://www.w3.org/2000/svg"
   xmlns:svg="http://www.w3.org/2000/svg"><sodipodi:namedview
     id="namedview7"
     pagecolor="#ffffff"
     bordercolor="#000000"
     borderopacity="0.25"
     inkscape:showpageshadow="2"
     inkscape:pageopacity="0.0"
     inkscape:pagecheckerboard="0"
     inkscape:deskcolor="#d1d1d1"
     inkscape:document-units="mm"
     showgrid="false"
     inkscape:zoom="0.48089355"
     inkscape:cx="105.01284"
     inkscape:cy="246.41628"
     inkscape:window-width="1800"
     inkscape:window-height="1025"
     inkscape:window-x="0"
     inkscape:window-y="44"
     inkscape:window-maximized="1"
     inkscape:current-layer="layer1" /><defs
     id="defs2" /><g
     inkscape:label="Layer 1"
     inkscape:groupmode="layer"
     id="layer1"
     transform="translate(-21.832133,-48.445495)"><path
       style="fill:#333333;fill-opacity:1;stroke:#176b7a;stroke-width:0.264583;stroke-opacity:1"
       d="m 90.694338,237.97147 c -10.24672,-0.40317 -13.96963,-0.83494 -20.11026,-2.3323 -1.10802,-0.27019 -2.11474,-0.86134 -2.11474,-1.24179 0,-0.55257 0.88507,-1.5156 1.70948,-1.86006 0.46562,-0.19455 2.05692,-0.43708 3.53623,-0.53897 1.47931,-0.10188 2.78848,-0.31708 2.90926,-0.47822 0.12078,-0.16114 0.47032,-0.94783 0.77676,-1.74819 1.58111,-4.12959 2.4292,-5.69933 3.71666,-6.87917 0.71457,-0.65484 1.62522,-1.63352 2.02366,-2.17484 0.39844,-0.54132 1.11733,-1.12629 1.59754,-1.29994 0.71047,-0.25691 0.90234,-0.49249 1.03009,-1.26474 0.0863,-0.52196 0.15462,-7.25933 0.15172,-14.97193 l -0.005,-14.02292 -1.21385,-0.91491 c -0.66762,-0.5032 -1.49004,-1.35243 -1.82761,-1.88717 -0.33757,-0.53474 -1.14618,-1.40853 -1.79691,-1.94175 -0.70587,-0.57842 -1.36136,-1.41811 -1.62494,-2.08159 -0.243,-0.61164 -0.65848,-1.3502 -0.9233,-1.64125 -0.75723,-0.8322 -2.91578,-5.18054 -2.91578,-5.87376 0,-0.34404 -0.16907,-1.03017 -0.37571,-1.52473 -0.20664,-0.49457 -0.57379,-1.87034 -0.81587,-3.05727 -0.38435,-1.88439 -0.48165,-2.72554 -0.63012,-5.4469 -0.0288,-0.52757 -0.21986,-0.56666 -3.63593,-0.74384 l -3.60554,-0.18701 -2.15843,1.07922 c -4.83023,2.41511 -8.68556,1.59129 -13.35741,-2.85425 -0.81535,-0.77584 -1.9679,-1.74968 -2.56124,-2.16409 -0.59334,-0.41441 -1.38043,-1.14885 -1.74908,-1.63209 -0.36866,-0.48323 -1.75843,-2.0057 -3.08839,-3.38325 -1.32996,-1.37755 -2.41811,-2.58366 -2.41811,-2.68022 0,-0.0966 -0.96852,-1.17214 -2.15227,-2.39015 -1.18375,-1.21802 -2.32854,-2.48246 -2.54397,-2.80988 -0.24795,-0.37684 -0.65734,-0.59532 -1.11554,-0.59532 -1.37199,0 -2.40231,-0.55849 -3.10918,-1.68534 -0.37702,-0.60103 -1.44107,-1.78794 -2.36456,-2.63757 -0.92348,-0.84964 -1.67906,-1.69481 -1.67906,-1.87815 0,-0.18334 -0.72301,-1.036 -1.60668,-1.89479 -0.88367,-0.85879 -1.84927,-2.03769 -2.14577,-2.61977 -0.29651,-0.58208 -0.80905,-1.35599 -1.13898,-1.71979 -0.32994,-0.3638 -0.80863,-1.30451 -1.06376,-2.09046 -0.74472,-2.29418 -0.18095,-5.9334 1.24002,-8.00455 0.26501,-0.38627 0.48184,-0.84474 0.48184,-1.01882 0,-0.17409 1.07816,-1.38345 2.39591,-2.68747 2.23348,-2.2102 2.53372,-2.41468 4.42856,-3.01607 2.73367,-0.86762 4.58294,-0.84568 6.8398,0.0811 1.68883,0.69355 4.32739,2.71185 4.32739,3.31013 0,0.15576 0.68461,0.96751 1.52136,1.80389 2.54278,2.54167 5.20429,5.52844 5.59662,6.28056 0.20411,0.39129 0.66688,1.10122 1.02839,1.57762 1.37825,1.8163 1.57672,5.75853 0.39097,7.76584 -0.42791,0.72439 -0.42146,0.74055 0.79913,2.00226 0.67678,0.69958 1.50213,1.62916 1.83411,2.06572 0.33198,0.43656 1.10957,1.32426 1.72797,1.97267 0.6184,0.64841 1.12437,1.2632 1.12437,1.3662 0,0.10301 1.34148,0.17615 2.98107,0.16254 2.70079,-0.0224 3.1267,0.0419 4.52989,0.68431 1.89891,0.86935 2.80709,0.89278 3.77967,0.0975 0.41135,-0.33634 1.34322,-0.95111 2.07083,-1.36616 0.7276,-0.41504 1.38244,-0.83342 1.4552,-0.92974 0.12989,-0.17194 0.52578,-0.38872 2.91042,-1.59375 0.65484,-0.33092 1.2821,-0.68204 1.3939,-0.78028 0.1118,-0.0982 -0.65751,-1.00393 -1.70957,-2.01264 -1.05207,-1.00871 -2.32517,-2.36979 -2.82912,-3.02464 -0.50395,-0.65484 -1.3808,-1.66687 -1.94856,-2.24896 -0.56776,-0.58208 -1.26984,-1.59398 -1.56017,-2.24866 -0.29033,-0.65468 -0.81706,-1.56948 -1.17051,-2.03287 -0.35345,-0.46339 -0.64264,-0.89552 -0.64264,-0.96028 0,-0.0648 -0.5175,-1.05497 -1.15,-2.20047 -0.6325,-1.14549 -1.29657,-2.5292 -1.47572,-3.0749 l -0.32573,-0.99219 -1.63313,-0.004 c -2.46883,-0.007 -5.98676,-0.82018 -6.89318,-1.59392 -3.74281,-3.19499 -4.99718,-4.85533 -5.98195,-7.91797 -0.49659,-1.54441 -0.58005,-2.25236 -0.46249,-3.92313 0.16127,-2.29186 0.61153,-3.57203 2.25846,-6.42117 0.98491,-1.70384 1.41036,-2.15044 3.175,-3.332863 2.34062,-1.56834 4.07705,-2.19432 6.75199,-2.43409 l 1.88866,-0.16929 0.45448,-1.95814 c 0.48558,-2.09213 1.48625,-4.39353 3.11756,-7.16998 0.55576,-0.94588 1.08638,-2.05024 1.17916,-2.45412 0.0928,-0.40389 0.38278,-0.94843 0.64445,-1.2101 0.26167,-0.26167 1.04292,-1.27056 1.73611,-2.24198 0.69319,-0.97141 1.41243,-1.85562 1.59833,-1.9649 0.18589,-0.10928 0.53041,-0.57529 0.7656,-1.03558 0.23519,-0.46029 1.44101,-1.76998 2.6796,-2.91042 l 2.25197,-2.07352 0.002,-11.86656 0.002,-11.866566 0.89958,-0.899583 c 1.11588,-1.115872 1.8424,-1.135854 2.83073,-0.07785 l 0.76761,0.82173 v 10.158479 c -7e-5,5.58716 0.0647,10.15848 0.14377,10.15848 0.0791,0 0.46485,-0.29766 0.85719,-0.66146 0.39235,-0.3638 0.84716,-0.66146 1.01071,-0.66146 0.16354,0 0.58654,-0.28919 0.93999,-0.64264 0.35345,-0.35345 0.99477,-0.72735 1.42514,-0.83088 0.43038,-0.10353 1.13969,-0.36967 1.57626,-0.5914 1.72895,-0.87817 6.38005,-2.70294 7.26465,-2.85016 0.51558,-0.0858 1.51083,-0.33688 2.21167,-0.55795 0.70083,-0.22107 2.72489,-0.53859 4.497912,-0.7056 l 3.22368,-0.30366 0.0709,-6.10111 0.0709,-6.101101 0.73956,-0.885878 c 0.97173,-1.16397 2.26267,-1.201158 3.15127,-0.09078 0.57846,0.722839 0.59499,0.914191 0.59626,6.903309 10e-4,4.70075 0.0797,6.18201 0.33205,6.25332 0.1819,0.0514 1.8089,0.22799 3.61555,0.39242 1.80665,0.16444 3.41399,0.4053 3.57187,0.53526 0.15788,0.12996 0.98189,0.3642 1.83114,0.52054 0.84924,0.15633 2.57565,0.71404 3.83646,1.23935 1.2608,0.52532 2.67939,1.05073 3.15241,1.16758 1.05466,0.26054 5.93648,2.99674 6.44446,3.61204 0.20263,0.24544 0.89005,0.67751 1.52759,0.96015 0.63755,0.28264 1.8877,1.23291 2.77813,2.11169 0.89042,0.8788 1.92331,1.78905 2.29532,2.0228 0.372,0.23374 1.31216,1.13936 2.08927,2.01249 0.7771,0.87312 1.70954,1.83345 2.07207,2.13406 0.36254,0.30062 0.85112,0.90804 1.08572,1.34983 0.23461,0.44179 1.1707,1.78372 2.0802,2.98207 0.90951,1.19835 1.65881,2.37687 1.66512,2.61893 0.006,0.24206 0.30182,0.91636 0.65667,1.49844 0.98542,1.61641 2.9532,5.5871 3.14238,6.34085 0.15738,0.62707 0.27534,0.67101 1.81692,0.67689 1.13738,0.004 2.14087,0.20906 3.2361,0.66023 0.87313,0.35967 1.73036,0.6545 1.90497,0.65518 0.47683,0.002 2.48257,1.42779 3.41433,2.42735 1.43331,1.537623 2.81784,3.915393 3.18282,5.466113 0.75126,3.19193 0.17851,8.88004 -0.9903,9.83485 -0.0891,0.0728 -0.34839,0.48947 -0.57626,0.92604 -0.22788,0.43656 -0.81004,1.19021 -1.29369,1.67477 -2.74228,2.74743 -5.13984,3.92534 -8.3611,4.10778 -0.91185,0.0516 -1.69285,0.14091 -1.73555,0.19838 -0.21008,0.28272 -3.61501,7.33021 -3.61501,7.48231 0,0.31245 -2.17325,3.6994 -3.16033,4.9253 -0.52728,0.65484 -1.42154,1.84438 -1.98724,2.64343 -0.56571,0.79904 -1.33557,1.6888 -1.71081,1.97725 -1.53484,1.17983 -3.19254,3.2827 -3.19479,4.05272 -5.3e-4,0.18647 0.20737,0.40994 0.46203,0.49659 1.48221,0.50435 3.80283,1.74692 4.76705,2.55251 2.48685,2.0777 3.63458,2.40848 4.82409,1.39031 1.50738,-1.29026 6.31384,-1.62833 6.37089,-0.4481 0.0132,0.27431 0.0696,0.31136 0.15434,0.10143 0.0734,-0.1819 0.29906,-0.33073 0.50148,-0.33073 0.20242,0 0.55243,-0.35659 0.77781,-0.79242 0.22538,-0.43584 1.03211,-1.28282 1.79274,-1.88219 0.76062,-0.59937 1.62107,-1.39822 1.91211,-1.77523 0.29105,-0.37702 1.0374,-1.24139 1.65858,-1.92084 l 1.12941,-1.23536 -0.5596,-1.29021 c -0.95965,-2.21253 -0.95853,-3.87346 0.004,-6.28581 0.85929,-2.15314 1.90219,-3.52253 5.62122,-7.38105 0.97262,-1.0091 1.82348,-1.97092 1.89078,-2.13737 0.36357,-0.89916 1.90449,-2.63247 2.88787,-3.24842 0.61922,-0.38786 1.18955,-0.80183 1.26741,-0.91994 0.31813,-0.48264 2.80684,-1.35927 4.22359,-1.48774 3.12119,-0.28302 6.92611,1.76126 10.07255,5.41171 1.82325,2.1153 2.04602,2.50043 2.49149,4.30738 0.95033,3.85474 0.20971,7.68868 -1.84677,9.56003 -0.49054,0.44638 -1.22643,1.30572 -1.63531,1.90964 -0.69058,1.02 -3.5325,4.31615 -5.65579,6.55979 -1.05279,1.11245 -2.77915,2.23216 -4.23165,2.74464 -1.23899,0.43714 -2.382,1.43098 -3.64658,3.17069 -0.52889,0.7276 -1.47779,1.7907 -2.10868,2.36243 -0.63088,0.57173 -1.31341,1.36121 -1.51674,1.7544 -0.20333,0.39319 -1.27119,1.64011 -2.37303,2.77093 -1.10185,1.13082 -2.32973,2.544 -2.72863,3.14039 -0.44499,0.6653 -1.26648,1.37585 -2.12576,1.83867 -0.77027,0.41488 -1.47385,0.9455 -1.56351,1.17915 -0.5172,1.34781 -3.40563,3.1077 -6.35477,3.8719 -2.33514,0.60509 -4.89648,0.0692 -7.79863,-1.63173 l -1.55817,-0.91322 -3.15664,0.61227 -3.15664,0.61227 -0.0302,1.06481 c -0.0958,3.38116 -1.29014,8.3901 -2.6197,10.98668 -0.26079,0.50933 -0.86023,1.69995 -1.33209,2.64584 -0.75951,1.5225 -1.69813,2.97387 -2.50033,3.86617 -0.14552,0.16187 -0.85989,0.99095 -1.5875,1.8424 -1.63805,1.91686 -3.21107,3.43241 -4.16936,4.01704 l -0.72978,0.44521 0.0683,14.8161 0.0683,14.8161 0.98098,0.55023 c 3.0963,1.73671 6.94979,7.21874 7.28656,10.36596 0.17945,1.67702 0.42889,1.93281 1.88517,1.93318 1.64315,5.3e-4 4.96726,0.651 5.47367,1.07128 0.25963,0.21547 0.37878,0.67204 0.32813,1.25736 -0.0768,0.88782 -0.14241,0.93924 -1.9316,1.51413 -1.71805,0.55203 -3.1026,0.80474 -7.93749,1.44873 -5.8793,0.78311 -29.24768,1.23827 -40.613542,0.79105 z m 15.610412,-6.97598 c 0,-0.66682 -0.92263,-2.77507 -1.98283,-4.53084 -0.73821,-1.22254 -2.69171,-3.30729 -3.09906,-3.30729 -0.15242,0 -1.0459,-0.37847 -1.985502,-0.84103 -1.52115,-0.74886 -2.02092,-0.85391 -4.56026,-0.95854 -2.91439,-0.12007 -3.66239,0.009 -6.09943,1.0536 -2.11694,0.90728 -2.37151,1.08325 -3.85896,2.66755 -1.30055,1.38523 -2.76375,3.95746 -3.41071,5.99584 l -0.17432,0.54924 h 12.58554 12.585532 z m 22.93028,0.25045 c -0.0798,-0.20795 -0.22727,-0.83303 -0.32771,-1.38907 -0.27233,-1.50747 -0.77451,-2.3292 -2.72918,-4.46578 -0.40706,-0.44494 -0.84814,-0.99345 -0.98018,-1.21891 -0.35781,-0.61094 -4.16103,-2.32168 -5.88116,-2.64543 -0.83635,-0.15741 -2.5864,-0.2138 -3.94668,-0.12717 -2.04173,0.13004 -2.76032,0.30537 -4.36563,1.06519 -1.05689,0.50025 -2.15112,1.08295 -2.43163,1.2949 -0.50119,0.37869 -0.50004,0.39803 0.0661,1.11783 0.31689,0.40286 0.57616,0.85742 0.57616,1.01013 0,0.15271 0.22609,0.76173 0.50242,1.35338 0.27633,0.59165 0.7089,1.73057 0.96127,2.53093 0.25237,0.80036 0.50956,1.54451 0.57153,1.65365 0.062,0.10914 4.16651,0.19843 9.1212,0.19843 7.69991,0 8.98745,-0.0549 8.86344,-0.37808 z m -22.02628,-11.00635 c 0.42443,-0.43252 0.87092,-0.7864 0.99219,-0.7864 0.12126,0 0.22048,-5.40072 0.22048,-12.00161 v -12.00161 l -2.64456,0.0292 -2.64457,0.0292 -10e-4,11.8401 c -0.001,9.50003 0.0663,11.84011 0.34048,11.84011 0.18797,0 0.78356,0.41672 1.32353,0.92604 0.53998,0.50932 1.13034,0.92273 1.3119,0.91869 0.18156,-0.004 0.67738,-0.36123 1.10182,-0.79375 z m -8.139672,-13.95186 c -0.097,-5.7399 -0.27713,-10.61612 -0.40021,-10.83606 -0.27162,-0.48535 -2.4664,-1.32761 -4.79953,-1.84185 -0.94589,-0.20848 -2.11355,-0.61073 -2.59481,-0.89388 -0.48126,-0.28316 -0.92775,-0.51483 -0.99219,-0.51483 -0.0644,0 -0.11717,5.47687 -0.11717,12.17083 v 12.17083 l 3.50573,0.0313 c 1.92815,0.0172 3.86292,0.11504 4.29948,0.21738 0.43656,0.10234 0.90206,0.12901 1.03444,0.0593 0.14288,-0.0753 0.16899,-4.36765 0.0643,-10.563 z m 17.554422,10.42815 c 1.09141,0.002 2.43086,0.0879 2.97657,0.19156 l 0.99218,0.18848 V 205.061 c 0,-7.36844 -0.0981,-12.09553 -0.25293,-12.19124 -0.13912,-0.086 -0.64513,0.007 -1.12448,0.20596 -0.47935,0.19925 -1.76451,0.57887 -2.85592,0.84359 -1.09141,0.26472 -2.47291,0.68908 -3.07001,0.943 -0.93815,0.39897 -1.10848,0.60002 -1.25385,1.47993 -0.21769,1.31758 -0.22595,19.75743 -0.009,20.3225 0.13499,0.35177 0.38727,0.39516 1.38907,0.23895 0.67326,-0.10499 2.11709,-0.1895 3.20849,-0.18781 z m -4.29512,-26.11982 c 0.97987,-0.28974 2.61502,-0.77408 3.63367,-1.0763 2.19326,-0.65072 5.04165,-2.16055 5.42407,-2.87513 0.14933,-0.279 0.77593,-0.73723 1.39246,-1.01827 1.16434,-0.53076 1.55907,-0.88251 3.43755,-3.06341 0.61765,-0.71709 1.49938,-1.64933 1.95941,-2.07166 0.46002,-0.42233 1.10004,-1.38344 1.42227,-2.1358 0.32222,-0.75236 0.67337,-1.42745 0.78032,-1.50021 0.3221,-0.21913 1.02746,-1.72474 1.76305,-3.76324 0.6915,-1.91631 1.00194,-3.52984 1.3151,-6.83534 0.20725,-2.18757 -0.52701,-8.14486 -1.23285,-10.00246 -0.28527,-0.75078 -0.52622,-1.57214 -0.53545,-1.82524 -0.009,-0.2531 -0.33664,-1.08077 -0.7276,-1.83927 -0.39096,-0.75849 -1.03777,-2.01952 -1.43736,-2.80228 -0.39958,-0.78276 -0.96561,-1.63958 -1.25784,-1.90404 -0.57397,-0.51943 -0.8239,-0.45361 -2.51355,0.66198 -1.70221,1.12388 -4.88134,2.4473 -7.40833,3.08396 -4.84293,1.22015 -6.31676,1.4348 -10.84792,1.57991 -3.80524,0.12186 -4.98686,0.0596 -7.672922,-0.40425 -6.86889,-1.18619 -7.88878,-1.5005 -13.17972,-4.06166 -1.42801,-0.69125 -2.76386,-1.25682 -2.96855,-1.25682 -0.20469,0 -0.77204,0.8632 -1.26079,1.91823 -0.48875,1.05502 -1.08767,2.08163 -1.33093,2.28135 -0.24326,0.19972 -0.44303,0.49738 -0.44393,0.66146 -7.9e-4,0.16408 -0.18846,0.65552 -0.41682,1.09208 -0.6152,1.17614 -1.64777,5.74808 -1.91218,8.46667 -0.24681,2.53762 -0.0476,5.32233 0.62161,8.6904 0.54909,2.76343 1.23708,4.53342 2.5505,6.56172 0.59876,0.92467 1.16039,1.94523 1.24807,2.26792 0.23227,0.85489 4.97661,5.86603 5.73358,6.05601 0.35394,0.0888 0.64354,0.24825 0.64354,0.35424 0,0.42474 3.66356,2.65464 5.02708,3.05983 0.80037,0.23784 1.64006,0.52924 1.866,0.64755 0.7599,0.39793 4.602292,1.39691 6.203792,1.61292 2.57263,0.347 8.08761,0.0415 10.12467,-0.56085 z M 61.223538,161.69201 c 0.79435,-0.20605 1.82686,-0.75675 2.54619,-1.35804 0.9778,-0.81734 1.29097,-1.29999 1.63189,-2.51503 0.52464,-1.86981 0.52681,-2.4747 0.0151,-4.1979 -0.34268,-1.15393 -0.63961,-1.54564 -1.88364,-2.48489 -1.3083,-0.98777 -1.67063,-1.12736 -3.17496,-1.22315 -1.48556,-0.0946 -1.90504,-0.006 -3.3512,0.70568 -2.14829,1.0576 -2.69305,1.68016 -3.20233,3.65967 -0.34263,1.3318 -0.36511,1.89219 -0.12203,3.04271 0.16387,0.77564 0.40457,1.61413 0.53489,1.8633 0.3145,0.60135 2.36899,1.99944 3.60577,2.45374 1.27364,0.46784 1.77403,0.47577 3.40034,0.0539 z m 93.922562,-0.91925 c 1.6303,-0.83579 3.01698,-3.1998 3.01698,-5.14338 0,-1.45113 -1.10154,-3.37543 -2.70726,-4.7294 -1.19865,-1.01071 -1.4686,-1.11768 -3.11869,-1.23574 -1.70025,-0.12165 -1.9077,-0.0726 -3.52859,0.83383 -1.59182,0.89019 -1.76476,1.077 -2.28543,2.4686 -0.72558,1.93929 -0.73831,3.5289 -0.0438,5.47104 0.30652,0.85716 0.59021,1.58865 0.63043,1.62555 0.0402,0.0369 0.7875,0.3799 1.66063,0.76223 1.33131,0.58298 1.88638,0.67965 3.43958,0.59909 1.20248,-0.0624 2.23231,-0.29099 2.93615,-0.65182 z m -80.903112,-1.31384 c 0.1298,-0.25466 0.5114,-1.89177 0.848,-3.63802 0.43212,-2.24182 0.90017,-3.75823 1.5925,-5.15937 0.53928,-1.09141 1.06286,-2.25227 1.16351,-2.57969 0.10065,-0.32742 0.29698,-0.59531 0.4363,-0.59531 0.24289,0 0.47349,-0.46824 0.89245,-1.81206 0.17361,-0.55686 0.12917,-0.60307 -0.42769,-0.44474 -0.67324,0.19143 -3.24624,1.36418 -6.1552,2.80549 -4.6675,2.31261 -4.68647,2.32817 -3.88563,3.18778 1.14341,1.2273 1.41813,2.27039 1.27296,4.83328 -0.0751,1.32575 -0.21995,2.67235 -0.32189,2.99243 -0.17584,0.55205 -0.0989,0.58685 1.49565,0.67663 0.92456,0.0521 1.94472,0.11759 2.26702,0.14562 0.33118,0.0288 0.68863,-0.15036 0.82202,-0.41204 z m 67.650932,-0.33298 c 0.29506,-0.24488 0.29126,-0.44397 -0.0228,-1.19561 -0.45454,-1.08785 -0.49447,-4.1992 -0.0699,-5.44338 0.16881,-0.49466 0.53492,-1.19467 0.81357,-1.55558 0.50359,-0.65224 0.50294,-0.65904 -0.10849,-1.12817 -0.33833,-0.25959 -0.85326,-0.65843 -1.1443,-0.88631 -0.67141,-0.5257 -3.23196,-1.82881 -4.10104,-2.0871 -0.3638,-0.10811 -1.4139,-0.54036 -2.33356,-0.96054 -0.91966,-0.42019 -1.78286,-0.76397 -1.91823,-0.76397 -0.35586,0 -0.30284,0.47729 0.14242,1.28209 0.2137,0.38626 0.73769,1.59525 1.16443,2.68666 0.42674,1.0914 1.14026,2.84859 1.5856,3.90485 0.44533,1.05627 0.99604,2.84221 1.22378,3.96875 0.6093,3.01386 0.40979,2.80785 2.54582,2.62878 1.02775,-0.0862 2.02795,-0.28888 2.22266,-0.45047 z m -92.099332,-5.87528 c 0.19369,-1.21124 1.28562,-3.16762 2.37728,-4.25928 0.37788,-0.37788 0.68705,-0.79922 0.68705,-0.93631 0,-0.13709 -0.52585,-0.68872 -1.16856,-1.22585 -0.64271,-0.53712 -1.6689,-1.68988 -2.28043,-2.56167 -1.31787,-1.87874 -1.48515,-1.88247 -4.10135,-0.0914 -0.94291,0.64554 -2.18966,1.31611 -2.77056,1.49015 -0.5809,0.17404 -1.05618,0.40131 -1.05618,0.50504 0,0.10372 0.40542,0.46639 0.90093,0.80592 0.4955,0.33952 1.08281,0.92042 1.30512,1.29087 0.63274,1.05437 1.29933,1.86994 2.14494,2.62433 0.42851,0.38228 1.38101,1.31622 2.11667,2.07541 0.73565,0.75919 1.41163,1.38427 1.50217,1.38906 0.0905,0.005 0.24486,-0.49305 0.34292,-1.10632 z M 164.6668,151.11857 c 3.16911,-3.33108 4.60878,-4.99538 4.60878,-5.32792 0,-0.43695 -1.11456,-1.45009 -3.16545,-2.87741 l -1.71023,-1.19023 -1.19311,0.96353 c -1.80682,1.45915 -4.51455,4.18376 -4.51455,4.54269 0,0.46517 1.36845,2.90313 1.62955,2.90313 0.1224,0 0.22632,0.14883 0.23094,0.33073 0.005,0.1819 0.42133,0.74172 0.92604,1.24403 0.5047,0.50232 0.91764,1.00834 0.91764,1.12448 0,0.50821 0.55691,0.088 2.27039,-1.71303 z m -50.7072,-3.10577 c 1.51803,-0.2977 2.88725,-0.64582 3.04271,-0.77359 0.15546,-0.12778 0.87797,-0.31392 1.60557,-0.41364 1.5769,-0.21612 5.07029,-1.74265 6.7847,-2.96475 0.67564,-0.48163 1.74235,-1.05701 2.37045,-1.27862 0.6281,-0.22161 1.20639,-0.49498 1.28509,-0.60749 0.0787,-0.11252 1.27419,-1.10049 2.65663,-2.1955 2.52415,-1.99932 6.61458,-5.82403 6.61458,-6.18488 0,-0.18677 0.61867,-0.95073 2.5699,-3.17343 0.51099,-0.58208 1.16938,-1.59411 1.46309,-2.24895 0.29371,-0.65485 0.70166,-1.48829 0.90657,-1.85209 0.91049,-1.6165 2.4545,-4.99385 2.75993,-6.03703 0.32685,-1.11635 0.31684,-1.15654 -0.44139,-1.77273 -0.42669,-0.34677 -1.11052,-0.77296 -1.51961,-0.94709 -0.40908,-0.17412 -0.94486,-0.69647 -1.19062,-1.16077 -0.24576,-0.4643 -0.89471,-1.51485 -1.44211,-2.33457 -1.19056,-1.78281 -2.19059,-5.49876 -1.9346,-7.18866 0.42633,-2.81448 1.09194,-4.68068 2.19579,-6.15648 0.62203,-0.831623 1.13096,-1.598873 1.13096,-1.704983 0,-0.39336 1.49006,-1.60074 2.55555,-2.07073 l 1.10034,-0.48537 -0.39041,-1.14423 c -0.39442,-1.15599 -1.69223,-3.94278 -1.94986,-4.18694 -0.0768,-0.0728 -0.37377,-0.66807 -0.65999,-1.32291 -0.65914,-1.50809 -2.39937,-4.12534 -3.80391,-5.72099 -0.59678,-0.67797 -1.08505,-1.35067 -1.08505,-1.49487 0,-0.28579 -3.94936,-4.22031 -5.8369,-5.81498 -2.12998,-1.79947 -7.59253,-5.19812 -9.25487,-5.75813 -0.89813,-0.30255 -1.88825,-0.71298 -2.20027,-0.91205 -0.89377,-0.57024 -4.31912,-1.67141 -7.19551,-2.3132 -3.60156,-0.80359 -12.51827,-0.86573 -15.993692,-0.11146 -2.44472,0.53057 -6.35289,1.77446 -7.57083,2.40964 -0.41995,0.219 -0.91201,0.39893 -1.09346,0.39983 -0.76885,0.004 -5.80545,2.93359 -6.2305,3.62429 -0.11573,0.18806 -0.83011,0.63805 -1.5875,1 -0.80341,0.38393 -2.14301,1.43189 -3.21567,2.51562 -1.01123,1.02165 -1.91639,1.85755 -2.01149,1.85755 -0.0951,0 -0.75314,0.74414 -1.46231,1.65364 -0.70917,0.90951 -1.91736,2.39939 -2.68486,3.31086 -0.7675,0.91146 -1.39546,1.81633 -1.39546,2.01082 0,0.19449 -0.32805,0.81796 -0.729,1.3855 -1.04995,1.4862 -3.11558,5.81365 -3.58675,7.51417 -0.83323,3.00727 -0.83155,3.05417 0.1338,3.73308 0.48106,0.33832 1.00231,0.73811 1.15833,0.88842 0.15602,0.150313 0.72296,0.570953 1.25987,0.934753 1.70065,1.15233 4.145,6.58188 4.145,9.20712 0,1.39085 -0.87008,4.26842 -1.92825,6.37717 -0.77786,1.55016 -1.57742,2.41875 -3.88091,4.21599 -0.59093,0.46106 -0.62302,0.58783 -0.35433,1.3997 0.74162,2.24087 1.40348,3.71998 2.25115,5.03085 0.50436,0.77997 1.1714,1.86659 1.4823,2.4147 0.64031,1.12884 0.52381,0.97451 2.74275,3.63364 2.23466,2.67797 4.49659,4.86506 6.84092,6.61458 1.07248,0.80037 2.19361,1.70591 2.4914,2.01233 0.29778,0.30641 1.01768,0.71798 1.59976,0.91459 0.58208,0.19661 1.5779,0.69517 2.21293,1.1079 1.99184,1.29459 5.65431,2.89479 7.44436,3.25257 0.94589,0.18906 2.43417,0.52614 3.30729,0.74909 4.127552,1.05391 11.598772,1.12751 16.518392,0.16271 z M 99.557058,133.14981 c -0.64894,-0.77123 -0.69378,-0.96827 -0.52687,-2.31511 0.10034,-0.80967 0.34942,-1.87362 0.5535,-2.36434 0.20409,-0.49071 0.37107,-1.1051 0.37107,-1.3653 0,-0.47762 1.635502,-2.72656 2.891292,-3.97574 0.79265,-0.78849 1.9916,-1.57196 2.40558,-1.57196 0.15862,0 0.80578,-0.23569 1.43811,-0.52375 2.4258,-1.10508 5.96898,-0.94119 9.04298,0.41827 2.19983,0.97287 4.94234,3.83698 5.48634,5.72961 0.50711,1.76426 0.80998,4.4695 0.59589,5.32249 -0.38333,1.52731 -0.0917,1.4888 -11.27224,1.4888 H 100.26638 Z M 88.500608,115.9775 c -0.62177,-0.32815 -1.37612,-1.1032 -1.98437,-2.03883 l -0.98128,-1.50943 -0.0818,-7.22073 c -0.0891,-7.866073 0.0613,-9.039713 1.43731,-11.219483 1.12775,-1.78648 3.37704,-2.29887 5.44974,-1.24145 1.23496,0.63003 1.83456,1.24771 2.59344,2.67164 0.48954,0.91857 0.52274,1.51357 0.5166,9.260413 l -0.007,8.27877 -0.9372,1.27764 c -1.57085,2.14147 -3.94407,2.82961 -6.00591,1.74146 z m 36.457272,-0.5896 c -2.20699,-0.87323 -3.08094,-1.70809 -3.61704,-3.45526 -0.13945,-0.45447 -0.24206,-4.16007 -0.22802,-8.23465 0.034,-9.866913 0.21132,-10.505423 3.3689,-12.131623 1.09274,-0.56277 2.07037,-0.54386 3.38658,0.0655 2.90051,1.3429 3.30933,2.88064 3.30148,12.418203 -0.005,6.33313 -0.0565,7.16469 -0.50086,8.11456 -1.21364,2.5946 -3.72196,4.01026 -5.71104,3.22325 z m -83.740622,26.30987 c 2.22042,-1.0894 2.57734,-1.35004 3.75541,-2.74242 1.26913,-1.5 2.06542,-3.19883 2.06542,-4.40645 0,-0.92536 -0.61737,-2.46162 -1.17534,-2.92469 -0.22669,-0.18813 -0.41216,-0.43926 -0.41216,-0.55806 0,-0.11879 -0.68742,-0.90789 -1.52759,-1.75354 -0.84018,-0.84565 -1.7534,-1.89473 -2.02938,-2.33129 -0.27598,-0.43656 -0.73668,-0.96125 -1.02379,-1.16599 -0.2871,-0.20473 -0.77286,-0.67898 -1.07947,-1.05389 -0.30662,-0.37491 -1.21759,-1.34913 -2.0244,-2.16493 -1.17419,-1.18728 -1.69226,-1.51931 -2.59616,-1.66385 -2.56694,-0.41047 -5.47577,1.30699 -7.60216,4.48856 -0.67657,1.0123 -0.94414,1.74892 -1.06892,2.94275 -0.1503,1.43798 -0.0848,1.75614 0.67521,3.2799 0.4629,0.9281 1.10449,1.92557 1.42574,2.21662 0.32124,0.29104 1.21945,1.30307 1.99601,2.24895 2.0535,2.50125 3.74785,4.44455 4.7845,5.48749 0.89665,0.9021 0.93677,0.91365 2.77812,0.80015 1.19321,-0.0736 2.29856,-0.32625 3.05896,-0.69931 z m 134.938332,-0.82626 c 0.58162,-0.29672 1.05748,-0.64662 1.05748,-0.77756 0,-0.13094 0.54187,-0.75359 1.20416,-1.38368 0.66229,-0.63009 1.57452,-1.6814 2.02718,-2.33624 0.45266,-0.65485 1.4497,-1.85706 2.21564,-2.6716 0.76595,-0.81454 1.75872,-2.05824 2.20616,-2.76378 0.70352,-1.10934 0.81353,-1.52696 0.81353,-3.08835 0,-2.48576 -0.40538,-3.10771 -3.97814,-6.10337 -1.76233,-1.47767 -2.42001,-1.82027 -3.75972,-1.95854 -2.2605,-0.23331 -3.02644,0.33932 -7.87255,5.8856 -1.23693,1.41564 -2.8082,3.20595 -3.49172,3.97846 -0.79217,0.89531 -1.38815,1.89417 -1.64377,2.75493 -0.38728,1.30412 -0.37848,1.40134 0.25708,2.83846 0.37741,0.85338 1.13496,1.92215 1.77607,2.50571 0.61488,0.55969 1.41562,1.30394 1.77942,1.65389 0.56691,0.54532 2.34899,1.55008 3.70416,2.08846 0.6728,0.26729 2.59359,-0.0554 3.70502,-0.62239 z M 61.987048,118.35936 c 0.58208,-0.15124 1.54972,-0.39304 2.15031,-0.53735 1.37183,-0.32963 1.90692,-0.90497 3.25424,-3.49903 1.00026,-1.92583 1.07774,-2.22857 1.07774,-4.21112 0,-2.06745 -0.0376,-2.19638 -1.17056,-4.01042 -1.14708,-1.83671 -2.83899,-3.38016 -4.46428,-4.07255 -1.21094,-0.51588 -4.1939,-0.3931 -5.65387,0.23271 -1.85651,0.7958 -2.80615,1.61035 -4.05133,3.47502 -0.93638,1.40224 -1.12749,1.92183 -1.25167,3.40302 -0.17464,2.08307 0.12363,3.13494 1.58776,5.59945 1.21099,2.0384 1.76674,2.47836 4.15603,3.29007 1.93946,0.65889 2.83872,0.7269 4.36563,0.3302 z m 92.736442,-2.54829 c 0.50933,-0.22736 1.62172,-0.96221 2.472,-1.63302 1.93705,-1.52819 2.5578,-2.82466 2.74878,-5.74096 0.22098,-3.37451 -0.5657,-5.37384 -2.78138,-7.0688 -3.14775,-2.407973 -5.42885,-2.617953 -8.95619,-0.82443 -2.12002,1.07796 -2.47698,1.47887 -3.82474,4.29559 -0.83935,1.75418 -0.76452,4.1096 0.19161,6.032 2.15469,4.3322 6.63072,6.51053 10.14992,4.93962 z m 14.02292,-16.200863 c 0,-0.44217 1.61865,-2.66731 2.23323,-3.07 0.3263,-0.2138 1.02735,-1.01897 1.55787,-1.78927 0.53053,-0.7703 1.48771,-1.7925 2.12708,-2.27155 0.63936,-0.47906 1.5041,-1.3414 1.92163,-1.91631 0.41753,-0.57492 1.58962,-1.87919 2.60463,-2.8984 l 1.84549,-1.85309 0.53576,0.73881 c 0.29467,0.40634 0.74909,0.91844 1.00983,1.13799 0.99654,0.83915 3.09781,3.01919 3.09781,3.21394 0,0.11215 0.30307,0.50697 0.67348,0.87739 0.47741,0.4774 0.55762,0.67348 0.27549,0.67348 -0.2189,0 -2.04001,0.83335 -4.04692,1.85188 -2.00691,1.01853 -3.80171,1.85197 -3.98845,1.85208 -0.18674,1.1e-4 -0.91888,0.29379 -1.62699,0.65261 -2.04498,1.03627 -7.24851,3.04837 -7.88921,3.05061 -0.1819,5.3e-4 -0.33073,-0.11194 -0.33073,-0.25017 z m -4.61971,-5.23849 c 0.18151,-0.69138 0.7673,-2.38815 1.30176,-3.7706 0.53445,-1.38245 1.16346,-3.04932 1.3978,-3.70417 0.23434,-0.65484 0.74899,-1.73895 1.14368,-2.40913 0.39469,-0.67018 0.80323,-1.62268 0.90787,-2.11667 0.10465,-0.49398 0.40685,-1.25534 0.67156,-1.69191 0.26472,-0.43656 0.86301,-1.56765 1.32954,-2.51354 1.52546,-3.09287 2.3199,-3.78937 3.16322,-2.77324 0.18338,0.22097 0.71679,0.58367 1.18534,0.80601 0.98357,0.46674 2.4242,1.80425 2.63942,2.4505 0.0811,0.24352 0.62202,0.77792 1.20203,1.18754 0.58001,0.40962 1.05457,0.83938 1.05457,0.95503 0,0.21706 -6.9445,6.90561 -8.30812,8.00191 -0.42213,0.33937 -1.43416,1.27189 -2.24896,2.07225 -0.8148,0.80037 -1.95771,1.76989 -2.53979,2.1545 -0.58209,0.3846 -1.35737,0.97992 -1.72285,1.32291 -1.50257,1.41013 -1.53999,1.41104 -1.17707,0.0286 z m -5.14492,-5.15572 c -0.42862,-1.79664 -0.97017,-4.79151 -1.61542,-8.93363 -0.28336,-1.81901 -0.63674,-3.8787 -0.78529,-4.57709 -0.14854,-0.69838 -0.27008,-1.62112 -0.27008,-2.05052 v -0.78072 h 4.79734 4.79734 l -0.14135,1.05383 c -0.0777,0.57961 -0.38212,1.56188 -0.67639,2.18281 -0.29427,0.62094 -0.85619,2.07301 -1.24871,3.22683 -0.39251,1.15381 -1.072,2.88022 -1.50997,3.83646 -0.43797,0.95623 -1.29555,3.0203 -1.90573,4.58682 l -1.10941,2.84821 z"
       id="path8993" /><path
       style="fill:#e8f7f5;fill-opacity:1;stroke:#e8f7f5;stroke-width:1.63135;stroke-opacity:1"
       d="M 374.78879,718.59037 C 344.39044,710.62516 323.506,694.64259 308.66607,667.9876 292.50928,638.96729 293.71831,597.03211 311.56598,567.40413 l 5.12092,-8.50095 8.87002,4.16764 c 28.69477,13.48244 50.0598,17.67494 83.5654,16.39821 27.08774,-1.03218 42.71359,-4.64255 61.88689,-14.29903 l 12.59957,-6.34568 4.40147,7.51054 c 7.26336,12.39399 12.05516,27.93375 13.97174,45.3103 1.52226,13.80142 1.3932,18.45757 -0.80798,29.15043 -3.71331,18.03853 -12.376,34.32274 -25.44199,47.82619 -14.33785,14.81786 -23.71025,21.28119 -37.74519,26.02955 -23.04207,7.79568 -43.5915,9.0765 -63.19804,3.93904 z"
       id="path11029"
       transform="scale(0.26458333)" /><path
       style="fill:#e8f7f5;fill-opacity:1;stroke:#e8f7f5;stroke-width:0.809199;stroke-opacity:1"
       d="m 382.75122,560.22741 c -10.14428,-1.02272 -29.97534,-5.76403 -38.29403,-9.15553 -3.83146,-1.56207 -10.08055,-4.63747 -13.88687,-6.83423 -3.80632,-2.19676 -8.64764,-4.73441 -10.7585,-5.63922 -4.73698,-2.03052 -22.34049,-16.03814 -30.53174,-24.29502 -14.84745,-14.9664 -27.98489,-34.13276 -33.11603,-48.31337 l -2.54567,-7.0353 6.95425,-6.44684 c 7.74463,-7.17953 10.70031,-12.06095 14.55424,-24.03693 3.11402,-9.67673 3.0156,-15.9669 -0.39882,-25.48977 -4.92529,-13.73671 -8.47633,-18.95688 -17.45622,-25.66133 -5.85,-4.36766 -6.81583,-5.42612 -6.81992,-7.47408 -0.0124,-6.23039 6.424,-21.50326 17.23912,-40.90632 7.15299,-12.83293 31.47544,-38.85114 41.26308,-44.13993 2.31329,-1.24999 5.84461,-3.6278 7.84737,-5.28402 4.1964,-3.47027 17.24307,-11.08881 20.22998,-11.8132 1.11265,-0.26984 5.03752,-1.72648 8.72193,-3.23699 12.96942,-5.31712 25.96594,-8.31758 40.43551,-9.33522 27.01154,-1.89972 52.2855,1.81513 71.41324,10.49655 2.00277,0.90899 5.91187,2.57157 8.68689,3.69462 2.77501,1.12305 8.2371,3.9491 12.13799,6.28011 14.6855,8.77548 22.35865,14.73724 33.79607,26.25828 15.22656,15.33789 22.22074,24.64393 30.47718,40.55107 4.47977,8.6309 9.57818,19.93577 9.57818,21.23803 0,0.27518 -1.72966,1.31649 -3.8437,2.31401 -5.24663,2.47566 -7.11897,4.34791 -12.65906,12.65848 -8.10065,12.15162 -10.95594,24.93699 -8.26761,37.02052 2.64376,11.88324 10.72975,25.54127 17.98861,30.38455 2.53824,1.69357 4.98933,3.68432 5.44686,4.42388 1.2194,1.97101 -0.36772,6.15077 -8.86099,23.33592 -5.75086,11.63622 -8.55176,16.32179 -12.57659,21.03918 -2.84791,3.33794 -6.26298,7.52826 -7.58905,9.31182 -6.27029,8.43347 -32.32185,30.63683 -40.11831,34.19222 -2.84916,1.29929 -7.46706,3.84751 -10.26201,5.66271 -8.95833,5.81803 -16.01609,8.362 -37.54939,13.53473 -13.90021,3.33909 -34.25903,4.4122 -51.23599,2.70062 z M 459.311,504.80553 c 2.41461,-2.41549 2.79042,-7.88873 1.18076,-17.19642 -1.66728,-9.64086 -3.9381,-13.83063 -11.43724,-21.10212 -9.08305,-8.80735 -18.76927,-12.52049 -32.31693,-12.38845 -12.57659,0.12257 -24.65348,5.40821 -31.8006,13.91804 -7.31631,8.71127 -10.41252,16.11172 -11.20788,26.78873 -0.42917,5.76121 -0.33497,6.22243 1.85741,9.09468 l 2.3095,3.0257 39.83122,-0.1935 c 39.64824,-0.1926 39.83927,-0.20155 41.58376,-1.94666 z M 346.33726,440.5374 c 4.53425,-1.22118 8.87456,-4.38395 12.16214,-8.86253 l 2.80804,-3.82532 -0.0178,-31.85496 c -0.0169,-30.28213 -0.099,-32.03475 -1.66415,-35.49635 -5.98992,-13.24802 -23.25292,-17.22587 -30.95181,-7.1321 -6.06886,7.95668 -7.23256,17.0757 -6.48636,50.82886 l 0.47406,21.44378 2.3007,3.64139 c 6.30815,9.98417 13.00556,13.51135 21.37518,11.25723 z m 138.4827,-5.02455 c 3.96887,-2.06983 9.05926,-8.41043 10.41369,-12.97132 0.9555,-3.2175 1.21006,-9.13838 1.21006,-28.14524 0,-37.30998 -1.34831,-42.96924 -11.46422,-48.11888 -6.14037,-3.12584 -9.42775,-3.29232 -15.06414,-0.76286 -5.56374,2.49686 -8.4395,5.16792 -10.26247,9.53195 -2.20075,5.26844 -3.04935,19.19974 -2.69804,44.2933 0.31265,22.33194 0.44389,24.08012 2.03505,27.10818 5.08345,9.67411 16.78654,13.78122 25.83007,9.06487 z"
       id="path20027"
       transform="scale(0.26458333)" /><path
       style="fill:#e8f7f5;fill-opacity:1;stroke:#e8f7f5;stroke-width:0.809199;stroke-opacity:1"
       d="m 136.0675,536.04589 c -1.81053,-1.42416 -19.28781,-21.33133 -27.94549,-31.83078 -1.50606,-1.82645 -3.82987,-5.62578 -5.16403,-8.44297 -2.09093,-4.41517 -2.36192,-5.74059 -1.96333,-9.60262 0.64513,-6.25063 3.97733,-12.53861 9.77541,-18.44651 7.73713,-7.8837 16.85308,-11.52416 23.42558,-9.35504 2.91541,0.96217 19.08515,16.67369 25.44503,24.72395 1.75803,2.2253 4.19279,4.95634 5.41057,6.06899 3.19805,2.92195 9.3461,11.16683 10.645,14.27555 1.67588,4.01093 1.35691,7.46124 -1.18632,12.83263 -5.10191,10.77542 -16.09569,18.98265 -27.66801,20.65509 -7.41886,1.07219 -8.39605,0.99253 -10.77441,-0.87829 z"
       id="path20770"
       transform="scale(0.26458333)" /><path
       style="fill:#e8f7f5;fill-opacity:1;stroke:#e8f7f5;stroke-width:0.809199;stroke-opacity:1"
       d="m 646.97117,531.46951 c -11.24825,-5.6913 -23.48319,-19.64082 -23.48319,-26.77408 0,-5.57366 9.71518,-18.50815 30.74957,-40.93903 12.39729,-13.22036 18.97825,-13.54658 33.244,-1.64792 9.0889,7.5808 11.82132,11.0269 12.91307,16.28584 1.89162,9.1119 -0.33033,14.39754 -11.32938,26.95058 -2.53477,2.89288 -6.16419,7.26256 -8.06538,9.71039 -6.91956,8.9091 -14.88967,16.57445 -18.28263,17.58352 -7.49063,2.22773 -9.29736,2.09356 -15.74606,-1.1693 z"
       id="path20772"
       transform="scale(0.26458333)" /><path
       style="fill:#e8f7f5;fill-opacity:1;stroke:#e8f7f5;stroke-width:0.809199;stroke-opacity:1"
       d="m 420.35317,871.30523 c -2.59969,-8.21305 -7.5128,-20.11186 -9.33761,-22.61431 -1.27666,-1.75075 -1.18636,-1.83256 6.01513,-5.44936 9.14202,-4.5914 12.72948,-5.3969 23.93613,-5.37444 10.29647,0.0206 14.72007,1.0856 24.32272,5.85556 6.48517,3.22141 8.9022,5.52286 16.87724,16.07017 2.26001,2.98895 5.69906,13.14463 4.76687,14.07681 -0.25854,0.25854 -15.12879,0.47007 -33.04501,0.47007 h -32.57495 z"
       id="path20774"
       transform="scale(0.26458333)" /><path
       style="fill:#e8f7f5;fill-opacity:1;stroke:#e8f7f5;stroke-width:0.809199;stroke-opacity:1"
       d="m 309.58002,870.09143 c 4.22889,-10.84804 12.87005,-22.04617 20.01151,-25.93304 11.0001,-5.987 19.36595,-7.65981 31.81236,-6.3611 16.55805,1.72774 27.67377,9.51838 35.01974,24.54418 2.02949,4.15121 3.9195,8.54905 4.20001,9.77296 l 0.51001,2.2253 h -46.60487 -46.60487 z"
       id="path20776"
       transform="scale(0.26458333)" /><path
       style="fill:#e8f7f5;fill-opacity:1;stroke:#e8f7f5;stroke-width:1.32593;stroke-opacity:1"
       d="m 562.77091,606.58942 c -4.72083,-2.14708 -6.45089,-3.83527 -7.85238,-7.66235 -6.31008,-17.23112 4.02927,-32.90588 20.91094,-31.70161 5.80781,0.4143 7.80818,1.2728 11.71506,5.02777 6.15451,5.9152 8.46289,10.51472 8.46289,16.86259 0,5.67045 -3.78634,12.32615 -9.35954,16.45235 -5.25261,3.88885 -16.51297,4.37047 -23.87697,1.02125 z"
       id="path21504"
       transform="scale(0.26458333)" /><path
       style="fill:#e8f7f5;fill-opacity:1;stroke:#e8f7f5;stroke-width:1.32593;stroke-opacity:1"
       d="m 215.46431,608.00888 c -8.85304,-4.70549 -11.27044,-8.56155 -11.27044,-17.97775 0,-9.79413 2.47266,-14.14016 10.73213,-18.86316 11.80903,-6.75273 27.63105,-1.62938 31.14034,10.08359 1.97888,6.60492 0.61945,16.12842 -2.95,20.66624 -6.34155,8.06197 -18.78638,10.80327 -27.65203,6.09108 z"
       id="path21508"
       transform="scale(0.26458333)" /><path
       style="fill:#285120;fill-opacity:1;stroke:#28511f;stroke-width:0.868338;stroke-opacity:1"
       d="m 342.7967,727.52292 c -3.14621,1.99774 -1.24553,7.13489 -1.96728,10.30799 -0.27124,26.56844 -0.081,53.13961 -0.13912,79.70913 3.35143,2.36402 9.07664,0.4343 13.34391,1.12783 6.58786,-0.0408 13.12602,0.79609 19.63597,1.34829 1.96798,-5.63945 0.55073,-12.34719 1.07525,-18.3589 -0.24215,-20.22762 0.12261,-40.55819 -1.7723,-60.70224 -1.41596,-6.93661 -10.25392,-6.17303 -15.35856,-8.6147 -4.98286,-1.43677 -9.88768,-3.31946 -14.81787,-4.8174 z"
       id="path21806"
       transform="scale(0.26458333)" /><path
       style="fill:#285120;fill-opacity:1;stroke:#28511f;stroke-width:0.868338;stroke-opacity:1"
       d="m 452.39721,729.10866 c -9.06298,2.55625 -18.55333,4.59397 -26.90031,9.01446 -4.08592,3.03662 -1.13279,9.56088 -2.30566,13.99577 -0.76798,22.47363 -1.27413,45.23776 0.58814,67.53773 10.43827,0.16326 21.25298,0.59256 31.58748,-0.20522 0.48211,-29.8701 0.0688,-59.88833 0.2086,-89.8153 -0.21625,-1.73615 -2.20036,-0.63532 -3.17825,-0.52744 z"
       id="path21808"
       transform="scale(0.26458333)" /><path
       style="fill:#285120;fill-opacity:1;stroke:#28511f;stroke-width:0.868338;stroke-opacity:1"
       d="m 620.76147,536.01034 c -7.41647,5.9002 -15.04287,12.1316 -20.59589,19.82252 -0.34259,5.33291 4.56442,9.5467 7.01031,13.92654 2.53888,2.57647 4.93188,8.59713 9.37448,7.26464 8.43688,-7.7535 16.32046,-16.38563 23.033,-25.66685 -0.79451,-4.36285 -6.11051,-6.54291 -9.11541,-9.43016 -3.19876,-1.85894 -6.12157,-5.35069 -9.70649,-5.91669 z"
       id="path21810"
       transform="scale(0.26458333)" /><path
       style="fill:#285120;fill-opacity:1;stroke:#28511f;stroke-width:0.868338;stroke-opacity:1"
       d="m 501.7517,548.70978 c 1.22946,6.49562 5.35929,12.5205 7.38766,18.93892 4.67593,11.18444 8.25379,22.7693 11.29348,34.46216 4.01521,2.28497 9.31761,0.55469 13.71532,0.13229 4.58933,-1.01988 1.89399,-5.99537 1.56878,-9.00053 -0.99997,-8.12358 -1.0729,-16.87178 3.97392,-23.88331 1.47064,-3.84725 -4.83058,-5.31984 -7.14052,-7.72507 -9.22499,-5.74363 -19.64862,-9.16358 -29.61655,-13.35693 l -0.81547,0.29834 z"
       id="path21812"
       transform="scale(0.26458333)" /><path
       style="fill:#285120;fill-opacity:1;stroke:#28511f;stroke-width:0.868338;stroke-opacity:1"
       d="m 297.16487,549.10664 c -13.2767,5.09215 -26.15482,11.55584 -38.41547,18.75745 -1.467,3.10186 3.19039,5.69422 4.128,8.64607 2.4992,8.29068 0.85836,16.9853 0.40025,25.40227 2.12519,3.38009 7.47094,1.28957 10.82529,2.06176 6.44616,2.15742 8.05322,-2.9548 8.40725,-8.28468 3.0647,-14.44586 7.17342,-29.1336 15.50775,-41.53735 0.80451,-1.44265 2.03005,-5.11875 -0.85307,-5.04552 z"
       id="path21814"
       transform="scale(0.26458333)" /><path
       style="fill:#285120;fill-opacity:1;stroke:#28511f;stroke-width:0.868338;stroke-opacity:1"
       d="m 180.46332,539.57358 c -7.72236,3.50621 -14.50148,8.91055 -22.45298,12.02444 -1.45745,2.87691 3.55396,4.45162 4.83013,6.54306 7.17366,9.04582 15.32755,17.61337 23.98444,25.08343 2.02172,-3.41601 2.17261,-8.33861 4.75486,-11.85278 1.81927,-4.44176 6.3536,-7.48776 7.79025,-11.94171 -5.02485,-6.08022 -10.72147,-11.74831 -15.76237,-17.88572 -0.91034,-0.74931 -1.80423,-2.12708 -3.14433,-1.97072 z"
       id="path21816"
       transform="scale(0.26458333)" /><path
       style="fill:#285120;fill-opacity:1;stroke:#28511f;stroke-width:0.868338;stroke-opacity:1"
       d="m 227.44345,384.58037 c -14.05508,-0.58573 -26.92353,10.1653 -30.59195,23.39085 -1.97621,8.60118 -0.31939,17.61757 4.62153,24.93927 3.89524,8.85839 13.12381,13.09224 22.08325,14.95169 7.46078,1.47114 15.24197,-1.19346 22.08495,-4.04659 6.76331,-4.47748 10.05226,-12.69008 12.65535,-20.05317 1.09279,-8.3459 0.99671,-17.54781 -4.86332,-24.26339 -5.8695,-7.86411 -14.30006,-16.47608 -25.05194,-14.92884 l -0.86828,0.009 z"
       id="path21818"
       transform="scale(0.26458333)" /><path
       style="fill:#285120;fill-opacity:1;stroke:#28511f;stroke-width:0.868338;stroke-opacity:1"
       d="m 576.33717,375.50013 c -9.18481,0.57412 -18.95856,4.04623 -25.15805,11.04757 -6.72461,9.01858 -10.71248,21.62801 -4.83861,32.11662 5.71823,12.52925 19.39522,23.49773 33.7702,20.51957 8.72358,-2.68121 17.2062,-8.46141 21.61347,-16.59 3.81826,-10.07137 4.7464,-22.44867 -0.80728,-32.04539 -5.77513,-7.469 -14.83318,-14.58658 -24.57973,-15.04837 z"
       id="path21820"
       transform="scale(0.26458333)" /></g></svg>
