<?xml version="1.0" encoding="UTF-8" standalone="no"?>
<svg
   xmlns:dc="http://purl.org/dc/elements/1.1/"
   xmlns:cc="http://creativecommons.org/ns#"
   xmlns:rdf="http://www.w3.org/1999/02/22-rdf-syntax-ns#"
   xmlns:svg="http://www.w3.org/2000/svg"
   xmlns="http://www.w3.org/2000/svg"
   xmlns:sodipodi="http://sodipodi.sourceforge.net/DTD/sodipodi-0.dtd"
   xmlns:inkscape="http://www.inkscape.org/namespaces/inkscape"
   class="icon icon-tabler icon-tabler-puzzle"
   width="24"
   height="24"
   viewBox="0 0 24 24"
   stroke-width="2"
   stroke="currentColor"
   fill="none"
   stroke-linecap="round"
   stroke-linejoin="round"
   version="1.1"
   id="svg6"
   sodipodi:docname="assembly.svg"
   inkscape:version="0.92.4 (5da689c313, 2019-01-14)">
  <metadata
     id="metadata12">
    <rdf:RDF>
      <cc:Work
         rdf:about="">
        <dc:format>image/svg+xml</dc:format>
        <dc:type
           rdf:resource="http://purl.org/dc/dcmitype/StillImage" />
        <dc:title />
      </cc:Work>
    </rdf:RDF>
  </metadata>
  <defs
     id="defs10" />
  <sodipodi:namedview
     pagecolor="#ffffff"
     bordercolor="#666666"
     borderopacity="1"
     objecttolerance="10"
     gridtolerance="10"
     guidetolerance="10"
     inkscape:pageopacity="0"
     inkscape:pageshadow="2"
     inkscape:window-width="3840"
     inkscape:window-height="2066"
     id="namedview8"
     showgrid="true"
     inkscape:zoom="39.333333"
     inkscape:cx="5.4010947"
     inkscape:cy="5.4632649"
     inkscape:window-x="-11"
     inkscape:window-y="-11"
     inkscape:window-maximized="1"
     inkscape:current-layer="svg6">
    <inkscape:grid
       type="xygrid"
       id="grid828" />
  </sodipodi:namedview>
  <g
     id="g827"
     style="stroke-width:1.5;stroke-miterlimit:4;stroke-dasharray:none"
     transform="matrix(0.85487288,0,0,0.85487288,1.7415254,1.7415254)">
    <rect
       id="rect2"
       height="24"
       width="24"
       y="0"
       x="0"
       style="stroke:none;stroke-width:1.5;stroke-miterlimit:4;stroke-dasharray:none" />
    <path
       style="stroke-width:1.5;stroke-miterlimit:4;stroke-dasharray:none"
       inkscape:connector-curvature="0"
       id="path4"
       d="M 2.1852251,4.1523179 H 4.1474839 A 0.65408623,0.65408623 0 0 0 4.80157,3.4982317 V 2.8441454 a 1.3081725,1.3081725 0 0 1 2.616345,0 V 3.4982317 A 0.65408623,0.65408623 0 0 0 8.0720013,4.1523179 H 10.03426 a 0.65408623,0.65408623 0 0 1 0.654086,0.6540863 V 6.768663 a 0.65408623,0.65408623 0 0 0 0.654086,0.6540861 h 0.654087 a 1.3081725,1.3081725 0 0 1 0,2.6163449 h -0.654087 a 0.65408623,0.65408623 0 0 0 -0.654086,0.654086 v 1.962259 A 0.65408623,0.65408623 0 0 1 10.03426,13.309526 H 8.0720013 A 0.65408623,0.65408623 0 0 1 7.417915,12.655439 v -0.654086 a 1.3081725,1.3081725 0 0 0 -2.616345,0 v 0.654086 A 0.65408623,0.65408623 0 0 1 4.1474839,13.309526 H 2.1852251 A 0.65408623,0.65408623 0 0 1 1.531139,12.655439 V 10.69318 a 0.65408623,0.65408623 0 0 1 0.6540861,-0.654086 h 0.6540863 a 1.3081725,1.3081725 0 0 0 0,-2.6163449 H 2.1852251 A 0.65408623,0.65408623 0 0 1 1.531139,6.768663 V 4.8064042 A 0.65408623,0.65408623 0 0 1 2.1852251,4.1523179" />
    <path
       d="M 2.1851267,13.306524 H 4.1473855 A 0.65408623,0.65408623 0 0 0 4.8014716,12.65244 v -0.654087 a 1.3081725,1.3081725 0 0 1 2.616345,0 v 0.654087 a 0.65408623,0.65408623 0 0 0 0.6540863,0.654084 h 1.9622591 a 0.65408623,0.65408623 0 0 1 0.654086,0.654086 v 1.962259 a 0.65408623,0.65408623 0 0 0 0.654086,0.654086 h 0.654086 a 1.308173,1.308173 0 0 1 0,2.616346 h -0.654086 a 0.65408623,0.65408623 0 0 0 -0.654086,0.654086 v 1.962259 a 0.65408623,0.65408623 0 0 1 -0.654086,0.654086 H 8.0719029 A 0.65408623,0.65408623 0 0 1 7.4178166,21.809646 V 21.15556 a 1.3081725,1.3081725 0 0 0 -2.616345,0 v 0.654086 A 0.65408623,0.65408623 0 0 1 4.1473855,22.463732 H 2.1851267 A 0.65408623,0.65408623 0 0 1 1.5310406,21.809646 V 19.847387 A 0.65408623,0.65408623 0 0 1 2.1851267,19.193301 H 2.839213 a 1.308173,1.308173 0 0 0 0,-2.616346 H 2.1851267 A 0.65408623,0.65408623 0 0 1 1.5310406,15.922869 V 13.96061 a 0.65408623,0.65408623 0 0 1 0.6540861,-0.654086"
       id="path822"
       inkscape:connector-curvature="0"
       style="stroke-width:1.5;stroke-miterlimit:4;stroke-dasharray:none" />
    <path
       style="stroke-width:1.5;stroke-miterlimit:4;stroke-dasharray:none"
       inkscape:connector-curvature="0"
       id="path824"
       d="m 11.349494,13.306621 h 1.962259 a 0.65408623,0.65408623 0 0 0 0.654086,-0.654081 v -0.654087 a 1.308173,1.308173 0 0 1 2.616346,0 v 0.654087 a 0.65408623,0.65408623 0 0 0 0.654086,0.654081 h 1.962257 a 0.65408623,0.65408623 0 0 1 0.654087,0.654087 v 1.962259 a 0.65408623,0.65408623 0 0 0 0.654086,0.654086 h 0.654086 a 1.3081726,1.3081726 0 0 1 0,2.616345 h -0.654086 a 0.65408623,0.65408623 0 0 0 -0.654086,0.654087 v 1.962258 a 0.65408623,0.65408623 0 0 1 -0.654087,0.654087 h -1.962257 a 0.65408623,0.65408623 0 0 1 -0.654086,-0.654087 v -0.654086 a 1.308173,1.308173 0 0 0 -2.616346,0 v 0.654086 a 0.65408623,0.65408623 0 0 1 -0.654086,0.654087 h -1.962259 a 0.65408623,0.65408623 0 0 1 -0.654087,-0.654087 v -1.962258 a 0.65408623,0.65408623 0 0 1 0.654087,-0.654087 h 0.654086 a 1.3081726,1.3081726 0 0 0 0,-2.616345 h -0.654086 a 0.65408623,0.65408623 0 0 1 -0.654087,-0.654086 v -1.962259 a 0.65408623,0.65408623 0 0 1 0.654087,-0.654087" />
    <path
       d="m 11.349493,4.1519766 h 1.962259 A 0.65408623,0.65408623 0 0 0 13.965838,3.4978918 V 2.8438044 a 1.3081735,1.3081735 0 0 1 2.616347,0 v 0.6540874 a 0.65408623,0.65408623 0 0 0 0.654086,0.6540848 h 1.962257 a 0.65408623,0.65408623 0 0 1 0.654087,0.6540863 v 1.9622589 a 0.65408623,0.65408623 0 0 0 0.654086,0.6540863 h 0.654086 a 1.3081726,1.3081726 0 0 1 0,2.6163449 h -0.654086 a 0.65408623,0.65408623 0 0 0 -0.654086,0.654087 v 1.962259 a 0.65408623,0.65408623 0 0 1 -0.654087,0.654086 h -1.962257 a 0.65408623,0.65408623 0 0 1 -0.654086,-0.654086 v -0.654087 a 1.3081735,1.3081735 0 0 0 -2.616347,0 v 0.654087 a 0.65408623,0.65408623 0 0 1 -0.654086,0.654086 H 11.349493 A 0.65408623,0.65408623 0 0 1 10.695407,12.655099 V 10.69284 a 0.65408623,0.65408623 0 0 1 0.654086,-0.654087 h 0.654087 a 1.3081726,1.3081726 0 0 0 0,-2.6163449 H 11.349493 A 0.65408623,0.65408623 0 0 1 10.695407,6.7683218 V 4.8060629 a 0.65408623,0.65408623 0 0 1 0.654086,-0.6540863"
       id="path826"
       inkscape:connector-curvature="0"
       style="stroke-width:1.5;stroke-miterlimit:4;stroke-dasharray:none" />
  </g>
</svg>
