<?xml version="1.0" encoding="UTF-8" standalone="no"?>
<svg
   class="icon icon-tabler icon-tabler-file"
   width="24"
   height="24"
   viewBox="0 0 24 24"
   stroke-width="2"
   stroke="currentColor"
   fill="none"
   stroke-linecap="round"
   stroke-linejoin="round"
   version="1.1"
   id="svg436"
   sodipodi:docname="pdf.svg"
   inkscape:version="1.2.2 (b0a84865, 2022-12-01)"
   xmlns:inkscape="http://www.inkscape.org/namespaces/inkscape"
   xmlns:sodipodi="http://sodipodi.sourceforge.net/DTD/sodipodi-0.dtd"
   xmlns="http://www.w3.org/2000/svg"
   xmlns:svg="http://www.w3.org/2000/svg">
  <defs
     id="defs440" />
  <sodipodi:namedview
     id="namedview438"
     pagecolor="#ffffff"
     bordercolor="#000000"
     borderopacity="0.25"
     inkscape:showpageshadow="2"
     inkscape:pageopacity="0.0"
     inkscape:pagecheckerboard="0"
     inkscape:deskcolor="#d1d1d1"
     showgrid="false"
     inkscape:zoom="17.033486"
     inkscape:cx="7.9549189"
     inkscape:cy="11.712224"
     inkscape:window-width="1800"
     inkscape:window-height="1021"
     inkscape:window-x="0"
     inkscape:window-y="44"
     inkscape:window-maximized="1"
     inkscape:current-layer="svg436" />
  <rect
     x="0"
     y="0"
     width="24"
     height="24"
     stroke="none"
     id="rect430" />
  <polyline
     points="14 3 14 8 19 8"
     id="polyline432" />
  <path
     d="M17 21H7a2 2 0 0 1 -2 -2V5a2 2 0 0 1 2 -2h7l5 5v11a2 2 0 0 1 -2 2z"
     id="path434" />
  <path
     d="m 16.767643,16.238632 c -0.06311,0.03907 -0.24341,0.06311 -0.357602,0.06311 -0.372627,0 -0.829396,-0.171288 -1.475484,-0.447754 0.24942,-0.01803 0.474799,-0.02704 0.679143,-0.02704 0.372628,0 0.48081,0 0.847427,0.09316 0.363612,0.09015 0.366618,0.279471 0.306516,0.318537 z m -6.463883,0.0571 c 0.144243,-0.252426 0.291491,-0.519876 0.441744,-0.805357 0.366617,-0.694168 0.601012,-1.241089 0.7723,-1.688843 0.345582,0.628057 0.775306,1.159953 1.277151,1.586672 0.06311,0.05409 0.129217,0.105177 0.201339,0.159268 -1.024726,0.204344 -1.911219,0.450758 -2.692534,0.74826 z m 1.196013,-6.5780767 c 0.204345,0 0.321542,0.5126627 0.330557,0.9964777 0.009,0.48081 -0.102172,0.817376 -0.24341,1.069801 -0.117197,-0.372627 -0.171288,-0.955609 -0.171288,-1.337251 0,0 -0.009,-0.7290287 0.08414,-0.7290287 z M 7.4910242,18.949196 c 0.1171973,-0.315532 0.5739664,-0.940584 1.2501049,-1.49652 0.042071,-0.03306 0.1472479,-0.132222 0.2434098,-0.222374 -0.706189,1.129902 -1.1809885,1.577656 -1.4935147,1.718894 z m 9.4719478,-3.374682 c -0.204344,-0.201339 -0.661113,-0.306516 -1.352277,-0.315532 -0.468789,-0.006 -1.030735,0.03606 -1.625737,0.117198 -0.264445,-0.153258 -0.537906,-0.318537 -0.75427,-0.519876 -0.576972,-0.54091 -1.057781,-1.28917 -1.358287,-2.112557 0.01803,-0.07813 0.03606,-0.144243 0.05109,-0.213359 0,0 0.324546,-1.848112 0.237399,-2.473165 -0.01202,-0.08715 -0.01803,-0.1111869 -0.04207,-0.1772977 l -0.02704,-0.07513 c -0.08716,-0.203143 -0.26145,-0.419507 -0.53491,-0.407787 l -0.159268,-0.0051 h -0.003 c -0.303512,0 -0.552931,0.155361 -0.616038,0.385849 -0.198333,0.7302297 0.006,1.8180617 0.375633,3.2274357 l -0.09616,0.231389 c -0.264446,0.643081 -0.595003,1.292174 -0.886494,1.863135 l -0.03907,0.07513 c -0.3065159,0.601012 -0.5859864,1.111872 -0.8384114,1.5446 L 9.0326157,16.85768 c -0.01803,0.01202 -0.4657843,0.246415 -0.5709614,0.309521 -0.8894976,0.531896 -1.4808934,1.135913 -1.5788584,1.616722 -0.031253,0.150253 -0.00781,0.345582 0.1505535,0.438739 l 0.252425,0.126213 c 0.1090837,0.05409 0.226281,0.08114 0.3434784,0.08114 0.6340676,0 1.3703072,-0.787325 2.3830122,-2.557306 1.171974,-0.381642 2.50622,-0.700178 3.675188,-0.874472 0.889498,0.501845 1.983339,0.850432 2.674503,0.850432 0.123208,0 0.228385,-0.01202 0.315532,-0.03606 0.132222,-0.03306 0.243409,-0.108181 0.312526,-0.213358 0.132223,-0.201339 0.162273,-0.477805 0.123207,-0.763286 -0.009,-0.08414 -0.07813,-0.189319 -0.150253,-0.26144 z"
     id="path136"
     style="fill:#000000;fill-opacity:1;stroke-width:0.1;stroke-dasharray:none" />
</svg>
