<svg width="30" height="35" viewBox="0 0 30 35" fill="none" xmlns="http://www.w3.org/2000/svg">
<path d="M11.9332 28.474C9.42365 28.4737 7.01702 27.4766 5.24264 25.7019C3.46825 23.9273 2.47144 21.5206 2.47144 19.011C2.47144 5.28767 18.9852 12.3322 26.9355 5.73368C27.0209 5.6698 27.122 5.63043 27.228 5.6198C27.334 5.60917 27.441 5.6277 27.5373 5.67338C27.6352 5.7143 27.721 5.77931 27.7869 5.86236C27.8527 5.94538 27.8966 6.04376 27.9142 6.14828C30.3416 20.3616 19.8785 28.474 11.9332 28.474Z" stroke="black" stroke-width="2" stroke-linecap="round" stroke-linejoin="round"/>
<path d="M17.147 16.4769C13.227 17.5544 9.55354 19.3832 6.33088 21.8617L1.42847 26.0454" stroke="black" stroke-width="2" stroke-linecap="round" stroke-linejoin="round"/>
</svg>
